<svg xmlns="http://www.w3.org/2000/svg" viewBox="0 0 32 32" fill="none">
  <rect width="32" height="32" rx="8" fill="url(#fg)"/>
  <path d="M8 8h7c2.8 0 4.8 1.5 4.8 3.8 0 1.6-1 2.8-2.4 3.3v.2c1.8.5 2.9 1.8 2.9 3.7 0 2.7-2.2 4.2-5.3 4.2H8V8zm3.4 6h2.8c1.5 0 2.3-.7 2.3-1.8 0-1.2-.9-1.9-2.4-1.9h-2.7v3.7zm0 6.7h3.2c1.6 0 2.5-.8 2.5-2.1 0-1.3-1-2.1-2.7-2.1h-3V20.7z" fill="#fff"/>
  <defs>
    <linearGradient id="fg" x1="0" y1="0" x2="32" y2="32" gradientUnits="userSpaceOnUse">
      <stop offset="0%" stop-color="#3b82f6"/>
      <stop offset="100%" stop-color="#8b5cf6"/>
    </linearGradient>
  </defs>
</svg>
