<svg xmlns="http://www.w3.org/2000/svg" viewBox="0 0 180 44" fill="none">
  <!-- B Icon Mark -->
  <rect x="0" y="2" width="40" height="40" rx="10" fill="url(#grad)"/>
  <path d="M12 12h8c3.5 0 6 1.8 6 4.8 0 2-1.2 3.4-3 4.1v.2c2.2.6 3.6 2.2 3.6 4.6 0 3.4-2.8 5.3-6.6 5.3H12V12zm4.2 7.6h3.6c1.8 0 2.8-.9 2.8-2.3 0-1.5-1.1-2.3-3-2.3h-3.4v4.6zm0 8.4h4c2 0 3.2-1 3.2-2.6 0-1.7-1.3-2.7-3.4-2.7h-3.8V28z" fill="#fff"/>
  <!-- Breasy Text -->
  <text x="50" y="22" font-family="-apple-system, BlinkMacSystemFont, 'Segoe UI', system-ui, sans-serif" font-size="24" font-weight="800" fill="currentColor" letter-spacing="-0.5">Breasy</text>
  <!-- Sales Machine Subtitle -->
  <text x="51" y="37" font-family="-apple-system, BlinkMacSystemFont, 'Segoe UI', system-ui, sans-serif" font-size="11" font-weight="500" fill="currentColor" opacity="0.5" letter-spacing="2.5">SALES MACHINE</text>
  <defs>
    <linearGradient id="grad" x1="0" y1="0" x2="40" y2="44" gradientUnits="userSpaceOnUse">
      <stop offset="0%" stop-color="#3b82f6"/>
      <stop offset="100%" stop-color="#8b5cf6"/>
    </linearGradient>
  </defs>
</svg>
